{
	"asset":{
		"generator":"Khronos glTF Blender I/O v4.2.57",
		"version":"2.0"
	},
	"scene":0,
	"scenes":[
		{
			"name":"Scene",
			"nodes":[
				0
			]
		}
	],
	"nodes":[
		{
			"mesh":0,
			"name":"Sphere",
			"scale":[
				0.1000000387430191,
				0.10000000149011612,
				0.1000000610947609
			]
		}
	],
	"materials":[
		{
			"doubleSided":true,
			"name":"Material.001",
			"pbrMetallicRoughness":{
				"baseColorFactor":[
					0.8038780689239502,
					0,
					0.6335926055908203,
					1
				],
				"metallicFactor":0,
				"roughnessFactor":0.5
			}
		}
	],
	"meshes":[
		{
			"name":"Sphere",
			"primitives":[
				{
					"attributes":{
						"POSITION":0,
						"NORMAL":1,
						"TEXCOORD_0":2
					},
					"indices":3,
					"material":0
				}
			]
		}
	],
	"accessors":[
		{
			"bufferView":0,
			"componentType":5126,
			"count":627,
			"max":[
				0.24999995529651642,
				0.25,
				0.24999989569187164
			],
			"min":[
				-0.24999985098838806,
				-0.25,
				-0.24999980628490448
			],
			"type":"VEC3"
		},
		{
			"bufferView":1,
			"componentType":5126,
			"count":627,
			"type":"VEC3"
		},
		{
			"bufferView":2,
			"componentType":5126,
			"count":627,
			"type":"VEC2"
		},
		{
			"bufferView":3,
			"componentType":5123,
			"count":3240,
			"type":"SCALAR"
		}
	],
	"bufferViews":[
		{
			"buffer":0,
			"byteLength":7524,
			"byteOffset":0,
			"target":34962
		},
		{
			"buffer":0,
			"byteLength":7524,
			"byteOffset":7524,
			"target":34962
		},
		{
			"buffer":0,
			"byteLength":5016,
			"byteOffset":15048,
			"target":34962
		},
		{
			"buffer":0,
			"byteLength":6480,
			"byteOffset":20064,
			"target":34963
		}
	],
	"buffers":[
		{
			"byteLength":26544,
			"uri":"nuc.bin"
		}
	]
}
