{
	"asset":{
		"generator":"Khronos glTF Blender I/O v4.2.57",
		"version":"2.0"
	},
	"scene":0,
	"scenes":[
		{
			"name":"Scene",
			"nodes":[
				0
			]
		}
	],
	"nodes":[
		{
			"mesh":0,
			"name":"Sphere.001"
		}
	],
	"materials":[
		{
			"doubleSided":true,
			"name":"Material.001",
			"pbrMetallicRoughness":{
				"baseColorFactor":[
					0.8038780689239502,
					0,
					0.6335926055908203,
					1
				],
				"metallicFactor":0,
				"roughnessFactor":0.4000000059604645
			}
		},
		{
			"doubleSided":true,
			"name":"Material.002",
			"pbrMetallicRoughness":{
				"baseColorFactor":[
					0,
					0,
					0,
					1
				],
				"metallicFactor":0,
				"roughnessFactor":0.4000000059604645
			}
		}
	],
	"meshes":[
		{
			"name":"Sphere.002",
			"primitives":[
				{
					"attributes":{
						"POSITION":0,
						"NORMAL":1,
						"TEXCOORD_0":2
					},
					"indices":3,
					"material":0
				},
				{
					"attributes":{
						"POSITION":4,
						"NORMAL":5,
						"TEXCOORD_0":6
					},
					"indices":7,
					"material":1
				}
			]
		}
	],
	"accessors":[
		{
			"bufferView":0,
			"componentType":5126,
			"count":2571,
			"max":[
				0.0639723390340805,
				0.0639723464846611,
				0.06397233158349991
			],
			"min":[
				-0.06397232413291931,
				-0.0639723464846611,
				-0.0639723464846611
			],
			"type":"VEC3"
		},
		{
			"bufferView":1,
			"componentType":5126,
			"count":2571,
			"type":"VEC3"
		},
		{
			"bufferView":2,
			"componentType":5126,
			"count":2571,
			"type":"VEC2"
		},
		{
			"bufferView":3,
			"componentType":5123,
			"count":12600,
			"type":"SCALAR"
		},
		{
			"bufferView":4,
			"componentType":5126,
			"count":64,
			"max":[
				0.0449107326567173,
				0.03804498165845871,
				0.03804498165845871
			],
			"min":[
				0.0449107326567173,
				-0.03804498538374901,
				-0.03804498538374901
			],
			"type":"VEC3"
		},
		{
			"bufferView":5,
			"componentType":5126,
			"count":64,
			"type":"VEC3"
		},
		{
			"bufferView":6,
			"componentType":5126,
			"count":64,
			"type":"VEC2"
		},
		{
			"bufferView":7,
			"componentType":5123,
			"count":192,
			"type":"SCALAR"
		}
	],
	"bufferViews":[
		{
			"buffer":0,
			"byteLength":30852,
			"byteOffset":0,
			"target":34962
		},
		{
			"buffer":0,
			"byteLength":30852,
			"byteOffset":30852,
			"target":34962
		},
		{
			"buffer":0,
			"byteLength":20568,
			"byteOffset":61704,
			"target":34962
		},
		{
			"buffer":0,
			"byteLength":25200,
			"byteOffset":82272,
			"target":34963
		},
		{
			"buffer":0,
			"byteLength":768,
			"byteOffset":107472,
			"target":34962
		},
		{
			"buffer":0,
			"byteLength":768,
			"byteOffset":108240,
			"target":34962
		},
		{
			"buffer":0,
			"byteLength":512,
			"byteOffset":109008,
			"target":34962
		},
		{
			"buffer":0,
			"byteLength":384,
			"byteOffset":109520,
			"target":34963
		}
	],
	"buffers":[
		{
			"byteLength":109904,
			"uri":"nuc2.bin"
		}
	]
}
