{
	"asset":{
		"generator":"Khronos glTF Blender I/O v4.2.57",
		"version":"2.0"
	},
	"scene":0,
	"scenes":[
		{
			"name":"Scene",
			"nodes":[
				0,
				1,
				2
			]
		}
	],
	"nodes":[
		{
			"mesh":0,
			"name":"Sphere",
			"scale":[
				0.1000000387430191,
				0.10000000149011612,
				0.1000000610947609
			],
			"translation":[
				0,
				-0.019999999552965164,
				0.05999999865889549
			]
		},
		{
			"mesh":1,
			"name":"Sphere.001",
			"translation":[
				0,
				0.03999999910593033,
				0
			]
		},
		{
			"mesh":2,
			"name":"Sphere.002",
			"scale":[
				0.1000000387430191,
				0.10000000149011612,
				0.1000000610947609
			],
			"translation":[
				0,
				-0.019999999552965164,
				-0.05999999865889549
			]
		}
	],
	"materials":[
		{
			"doubleSided":true,
			"name":"Material.001",
			"pbrMetallicRoughness":{
				"baseColorFactor":[
					0.8038780689239502,
					0,
					0.6335926055908203,
					1
				],
				"metallicFactor":0,
				"roughnessFactor":0.4000000059604645
			}
		},
		{
			"doubleSided":true,
			"name":"Material.002",
			"pbrMetallicRoughness":{
				"baseColorFactor":[
					0,
					0,
					0,
					1
				],
				"metallicFactor":0,
				"roughnessFactor":0.4000000059604645
			}
		}
	],
	"meshes":[
		{
			"name":"Sphere",
			"primitives":[
				{
					"attributes":{
						"POSITION":0,
						"NORMAL":1,
						"TEXCOORD_0":2
					},
					"indices":3,
					"material":0
				},
				{
					"attributes":{
						"POSITION":4,
						"NORMAL":5,
						"TEXCOORD_0":6
					},
					"indices":7,
					"material":1
				}
			]
		},
		{
			"name":"Sphere.002",
			"primitives":[
				{
					"attributes":{
						"POSITION":8,
						"NORMAL":9,
						"TEXCOORD_0":10
					},
					"indices":11,
					"material":0
				},
				{
					"attributes":{
						"POSITION":12,
						"NORMAL":13,
						"TEXCOORD_0":14
					},
					"indices":15,
					"material":1
				}
			]
		},
		{
			"name":"Sphere.003",
			"primitives":[
				{
					"attributes":{
						"POSITION":16,
						"NORMAL":17,
						"TEXCOORD_0":18
					},
					"indices":3,
					"material":0
				},
				{
					"attributes":{
						"POSITION":19,
						"NORMAL":20,
						"TEXCOORD_0":21
					},
					"indices":7,
					"material":1
				}
			]
		}
	],
	"accessors":[
		{
			"bufferView":0,
			"componentType":5126,
			"count":2444,
			"max":[
				0.2487896978855133,
				0.25,
				0.24999989569187164
			],
			"min":[
				-0.24999985098838806,
				-0.25,
				-0.24999982118606567
			],
			"type":"VEC3"
		},
		{
			"bufferView":1,
			"componentType":5126,
			"count":2444,
			"type":"VEC3"
		},
		{
			"bufferView":2,
			"componentType":5126,
			"count":2444,
			"type":"VEC2"
		},
		{
			"bufferView":3,
			"componentType":5123,
			"count":12984,
			"type":"SCALAR"
		},
		{
			"bufferView":4,
			"componentType":5126,
			"count":81,
			"max":[
				0.2401810884475708,
				0.11819401383399963,
				0.1056545302271843
			],
			"min":[
				0.1894020289182663,
				-0.11819402128458023,
				-0.10565456002950668
			],
			"type":"VEC3"
		},
		{
			"bufferView":5,
			"componentType":5126,
			"count":81,
			"type":"VEC3"
		},
		{
			"bufferView":6,
			"componentType":5126,
			"count":81,
			"type":"VEC2"
		},
		{
			"bufferView":7,
			"componentType":5123,
			"count":312,
			"type":"SCALAR"
		},
		{
			"bufferView":8,
			"componentType":5126,
			"count":2571,
			"max":[
				0.0639723390340805,
				0.0639723464846611,
				0.06397233158349991
			],
			"min":[
				-0.06397232413291931,
				-0.0639723464846611,
				-0.0639723464846611
			],
			"type":"VEC3"
		},
		{
			"bufferView":9,
			"componentType":5126,
			"count":2571,
			"type":"VEC3"
		},
		{
			"bufferView":10,
			"componentType":5126,
			"count":2571,
			"type":"VEC2"
		},
		{
			"bufferView":11,
			"componentType":5123,
			"count":12600,
			"type":"SCALAR"
		},
		{
			"bufferView":12,
			"componentType":5126,
			"count":64,
			"max":[
				0.0449107326567173,
				0.03804498165845871,
				0.03804498165845871
			],
			"min":[
				0.0449107326567173,
				-0.03804498538374901,
				-0.03804498538374901
			],
			"type":"VEC3"
		},
		{
			"bufferView":13,
			"componentType":5126,
			"count":64,
			"type":"VEC3"
		},
		{
			"bufferView":14,
			"componentType":5126,
			"count":64,
			"type":"VEC2"
		},
		{
			"bufferView":15,
			"componentType":5123,
			"count":192,
			"type":"SCALAR"
		},
		{
			"bufferView":16,
			"componentType":5126,
			"count":2444,
			"max":[
				0.2487896978855133,
				0.25,
				0.24999989569187164
			],
			"min":[
				-0.24999985098838806,
				-0.25,
				-0.24999982118606567
			],
			"type":"VEC3"
		},
		{
			"bufferView":17,
			"componentType":5126,
			"count":2444,
			"type":"VEC3"
		},
		{
			"bufferView":18,
			"componentType":5126,
			"count":2444,
			"type":"VEC2"
		},
		{
			"bufferView":19,
			"componentType":5126,
			"count":81,
			"max":[
				0.2401810884475708,
				0.11819401383399963,
				0.1056545302271843
			],
			"min":[
				0.1894020289182663,
				-0.11819402128458023,
				-0.10565456002950668
			],
			"type":"VEC3"
		},
		{
			"bufferView":20,
			"componentType":5126,
			"count":81,
			"type":"VEC3"
		},
		{
			"bufferView":21,
			"componentType":5126,
			"count":81,
			"type":"VEC2"
		}
	],
	"bufferViews":[
		{
			"buffer":0,
			"byteLength":29328,
			"byteOffset":0,
			"target":34962
		},
		{
			"buffer":0,
			"byteLength":29328,
			"byteOffset":29328,
			"target":34962
		},
		{
			"buffer":0,
			"byteLength":19552,
			"byteOffset":58656,
			"target":34962
		},
		{
			"buffer":0,
			"byteLength":25968,
			"byteOffset":78208,
			"target":34963
		},
		{
			"buffer":0,
			"byteLength":972,
			"byteOffset":104176,
			"target":34962
		},
		{
			"buffer":0,
			"byteLength":972,
			"byteOffset":105148,
			"target":34962
		},
		{
			"buffer":0,
			"byteLength":648,
			"byteOffset":106120,
			"target":34962
		},
		{
			"buffer":0,
			"byteLength":624,
			"byteOffset":106768,
			"target":34963
		},
		{
			"buffer":0,
			"byteLength":30852,
			"byteOffset":107392,
			"target":34962
		},
		{
			"buffer":0,
			"byteLength":30852,
			"byteOffset":138244,
			"target":34962
		},
		{
			"buffer":0,
			"byteLength":20568,
			"byteOffset":169096,
			"target":34962
		},
		{
			"buffer":0,
			"byteLength":25200,
			"byteOffset":189664,
			"target":34963
		},
		{
			"buffer":0,
			"byteLength":768,
			"byteOffset":214864,
			"target":34962
		},
		{
			"buffer":0,
			"byteLength":768,
			"byteOffset":215632,
			"target":34962
		},
		{
			"buffer":0,
			"byteLength":512,
			"byteOffset":216400,
			"target":34962
		},
		{
			"buffer":0,
			"byteLength":384,
			"byteOffset":216912,
			"target":34963
		},
		{
			"buffer":0,
			"byteLength":29328,
			"byteOffset":217296,
			"target":34962
		},
		{
			"buffer":0,
			"byteLength":29328,
			"byteOffset":246624,
			"target":34962
		},
		{
			"buffer":0,
			"byteLength":19552,
			"byteOffset":275952,
			"target":34962
		},
		{
			"buffer":0,
			"byteLength":972,
			"byteOffset":295504,
			"target":34962
		},
		{
			"buffer":0,
			"byteLength":972,
			"byteOffset":296476,
			"target":34962
		},
		{
			"buffer":0,
			"byteLength":648,
			"byteOffset":297448,
			"target":34962
		}
	],
	"buffers":[
		{
			"byteLength":298096,
			"uri":"nuc3.bin"
		}
	]
}
