{
	"asset":{
		"generator":"Khronos glTF Blender I/O v4.2.57",
		"version":"2.0"
	},
	"scene":0,
	"scenes":[
		{
			"name":"Scene",
			"nodes":[
				0
			]
		}
	],
	"nodes":[
		{
			"mesh":0,
			"name":"Sphere.002"
		}
	],
	"materials":[
		{
			"doubleSided":true,
			"name":"Material.001",
			"pbrMetallicRoughness":{
				"baseColorFactor":[
					0.8038780689239502,
					0,
					0.6335926055908203,
					1
				],
				"metallicFactor":0,
				"roughnessFactor":0.4000000059604645
			}
		},
		{
			"doubleSided":true,
			"name":"Material.002",
			"pbrMetallicRoughness":{
				"baseColorFactor":[
					0,
					0,
					0,
					1
				],
				"metallicFactor":0,
				"roughnessFactor":0.4000000059604645
			}
		}
	],
	"meshes":[
		{
			"name":"Sphere.003",
			"primitives":[
				{
					"attributes":{
						"POSITION":0,
						"NORMAL":1,
						"TEXCOORD_0":2
					},
					"indices":3,
					"material":0
				},
				{
					"attributes":{
						"POSITION":4,
						"NORMAL":5,
						"TEXCOORD_0":6
					},
					"indices":7,
					"material":1
				}
			]
		}
	],
	"accessors":[
		{
			"bufferView":0,
			"componentType":5126,
			"count":7459,
			"max":[
				0.0639723390340805,
				0.10397234559059143,
				0.08500000834465027
			],
			"min":[
				-0.06397232413291931,
				-0.04500000178813934,
				-0.08499999344348907
			],
			"type":"VEC3"
		},
		{
			"bufferView":1,
			"componentType":5126,
			"count":7459,
			"type":"VEC3"
		},
		{
			"bufferView":2,
			"componentType":5126,
			"count":7459,
			"type":"VEC2"
		},
		{
			"bufferView":3,
			"componentType":5123,
			"count":38568,
			"type":"SCALAR"
		},
		{
			"bufferView":4,
			"componentType":5126,
			"count":226,
			"max":[
				0.0449107326567173,
				0.07804498076438904,
				0.07056546211242676
			],
			"min":[
				0.018940210342407227,
				-0.03181940317153931,
				-0.07056546211242676
			],
			"type":"VEC3"
		},
		{
			"bufferView":5,
			"componentType":5126,
			"count":226,
			"type":"VEC3"
		},
		{
			"bufferView":6,
			"componentType":5126,
			"count":226,
			"type":"VEC2"
		},
		{
			"bufferView":7,
			"componentType":5123,
			"count":816,
			"type":"SCALAR"
		}
	],
	"bufferViews":[
		{
			"buffer":0,
			"byteLength":89508,
			"byteOffset":0,
			"target":34962
		},
		{
			"buffer":0,
			"byteLength":89508,
			"byteOffset":89508,
			"target":34962
		},
		{
			"buffer":0,
			"byteLength":59672,
			"byteOffset":179016,
			"target":34962
		},
		{
			"buffer":0,
			"byteLength":77136,
			"byteOffset":238688,
			"target":34963
		},
		{
			"buffer":0,
			"byteLength":2712,
			"byteOffset":315824,
			"target":34962
		},
		{
			"buffer":0,
			"byteLength":2712,
			"byteOffset":318536,
			"target":34962
		},
		{
			"buffer":0,
			"byteLength":1808,
			"byteOffset":321248,
			"target":34962
		},
		{
			"buffer":0,
			"byteLength":1632,
			"byteOffset":323056,
			"target":34963
		}
	],
	"buffers":[
		{
			"byteLength":324688,
			"uri":"untitled.bin"
		}
	]
}
